<?xml version="1.0" encoding="UTF-8" standalone="no"?>
<!-- Created with Inkscape (http://www.inkscape.org/) -->

<svg
   version="1.1"
   id="svg2"
   width="441.32611"
   height="543.72528"
   viewBox="0 0 441.32611 543.72528"
   sodipodi:docname="VB Koe nette vector-donkerrood.ai"
   xmlns:inkscape="http://www.inkscape.org/namespaces/inkscape"
   xmlns:sodipodi="http://sodipodi.sourceforge.net/DTD/sodipodi-0.dtd"
   xmlns="http://www.w3.org/2000/svg"
   xmlns:svg="http://www.w3.org/2000/svg">
  <defs
     id="defs6">
    <clipPath
       clipPathUnits="userSpaceOnUse"
       id="clipPath18">
      <path
         d="M 0,841.89 H 595.275 V 0 H 0 Z"
         id="path16" />
    </clipPath>
  </defs>
  <sodipodi:namedview
     id="namedview4"
     pagecolor="#ffffff"
     bordercolor="#666666"
     borderopacity="1.0"
     inkscape:showpageshadow="2"
     inkscape:pageopacity="0.0"
     inkscape:pagecheckerboard="0"
     inkscape:deskcolor="#d1d1d1"
     showgrid="false" />
  <g
     id="g10"
     inkscape:groupmode="layer"
     inkscape:label="Page 1"
     transform="matrix(1.3333333,0,0,-1.3333333,-5.6599278e-6,1122.52)">
    <g
       id="g12"
       style="stroke:#000000;stroke-width:0.99975;stroke-dasharray:none;stroke-opacity:1"
       transform="translate(-132.13872,217.04676)">
      <g
         id="g14"
         clip-path="url(#clipPath18)"
         style="stroke:#000000;stroke-width:0.99975;stroke-dasharray:none;stroke-opacity:1">
        <g
           id="g20"
           transform="translate(396.3994,492.1997)"
           style="stroke:#000000;stroke-width:0.99975;stroke-dasharray:none;stroke-opacity:1">
          <path
             d="m 0,0 c 4.161,0.09 8.051,0.09 11.939,1.764 4.614,2.804 5.97,6.648 4.975,11.803 C 13.975,14.743 7.146,10.809 4.704,9.769 0.859,7.96 -3.617,6.196 -6.964,3.573 -7.326,0.181 -2.216,0.271 0,0 m -217.079,-10.854 c 1.855,0.181 3.709,0.362 5.608,0.543 3.121,0.95 6.196,1.854 9.181,3.211 3.347,3.347 -1.492,3.754 -4.07,4.477 -5.563,1.221 -5.563,1.221 -12.527,2.442 -2.036,0.226 -6.196,1.357 -8.005,0 -0.407,-6.512 3.934,-9.588 9.813,-10.673 m 141.554,-26.818 c 0.452,0.09 0.904,0.181 1.357,0.226 6.376,2.352 3.392,10.764 -3.393,8.683 -1.808,-1.131 -2.441,-2.442 -2.577,-4.523 0.588,-2.713 1.99,-3.617 4.613,-4.386 m -43.235,-2.126 c 3.166,0.136 4.025,0.226 6.06,2.669 2.397,5.652 -6.06,9.361 -8.864,4.386 -0.814,-3.256 -0.361,-5.788 2.804,-7.055 m 41.29,-8.592 c 1.448,0.045 2.895,0.09 4.387,0.09 4.794,1.583 6.829,5.02 9.724,9.135 1.085,0.815 2.125,1.357 3.075,0.045 0.679,-1.718 0.679,-1.718 1.854,-6.24 1.583,-3.211 3.392,-2.08 5.969,-0.362 1.538,1.809 1.448,3.165 1.448,5.517 -2.533,10.854 -14.517,27.045 -27.316,20.668 -6.195,-4.929 -13.07,-15.015 -9.497,-23.246 2.442,-3.572 6.286,-4.748 10.356,-5.607 m -41.742,-1.945 c 6.377,0.181 12.753,0.904 15.421,7.552 1.267,6.784 -3.075,13.071 -6.783,18.317 -2.759,2.397 -4.523,3.934 -8.186,4.522 -11.577,0 -20.803,-12.301 -22.703,-22.793 0.136,-3.483 0.588,-4.297 3.527,-6.332 5.111,-1.854 4.026,6.196 6.603,8.774 1.131,0 1.448,-0.316 2.353,-0.995 3.075,-4.025 4.884,-7.462 9.768,-9.045 m -66.345,-36.497 c 27.044,13.116 56.034,20.352 85.927,23.156 15.422,0.995 30.12,0.588 45.496,-1.04 4.387,-0.769 8.82,-1.583 13.251,-2.398 4.839,-1.22 4.839,-1.22 12.844,-3.572 -1.538,28.311 -5.155,57.39 -21.934,81.133 -1.493,1.809 -2.94,3.573 -4.386,5.337 -1.719,1.537 -3.438,3.075 -5.112,4.612 -2.171,1.493 -4.341,2.985 -6.511,4.433 -8.729,4.341 -17.005,5.834 -26.774,5.291 -2.487,-0.407 -4.929,-0.814 -7.371,-1.221 -17.728,-4.658 -31.567,-14.472 -44.592,-27.135 -4.387,-4.659 -4.387,-4.659 -8.322,-9.181 -2.034,-2.668 -4.024,-5.336 -6.014,-8.004 -14.517,-21.256 -24.648,-45.542 -26.502,-71.411 m 94.203,-9.18 c 2.849,0.271 4.162,0.362 5.79,2.939 2.08,6.286 -7.553,9.136 -9.181,3.302 0,-3.482 -0.136,-4.975 3.391,-6.241 m -33.737,-4.975 c 2.035,0.091 3.437,0 5.02,1.357 2.442,2.894 1.221,7.009 -2.488,7.915 -4.929,0 -5.653,-1.358 -5.653,-6.106 0.543,-1.899 1.312,-2.397 3.121,-3.166 m 43.867,-3.934 c 8.412,0.226 20.036,1.673 23.563,10.718 1.583,7.552 -5.97,11.351 -11.804,13.523 -10.13,2.441 -26.909,1.763 -31.024,-10.041 0,-8.909 8.005,-11.713 15.467,-13.657 1.266,-0.181 2.533,-0.363 3.798,-0.543 m -53.093,-2.08 c 7.145,0.543 17.004,2.396 19.085,10.537 0,8.276 -7.327,10.853 -14.246,12.618 -8.367,0.723 -20.306,-0.679 -23.02,-10.221 0,-9.768 10.357,-12.03 18.181,-12.934 m -33.467,-111.253 c 1.131,0.089 2.307,0.18 3.483,0.225 2.216,0.77 3.844,1.764 5.788,3.03 1.177,1.267 2.397,2.534 3.618,3.754 1.357,2.08 2.714,4.161 4.071,6.242 3.437,6.059 6.467,12.436 10.266,18.315 6.467,6.829 6.467,6.829 9.542,10.402 0.769,1.266 1.448,2.125 1.448,3.573 -3.031,1.493 -7.598,0.588 -10.764,-0.362 -1.447,-0.814 -2.895,-1.628 -4.296,-2.442 -11.488,-9.135 -22.884,-21.482 -27.316,-35.773 -0.136,-4.025 -0.136,-5.699 4.16,-6.964 m 44.05,-7.553 c 9.632,0.045 19.311,0.226 28.943,0.679 36.361,3.572 76.023,11.712 102.163,39.345 6.603,8.004 10.899,15.783 13.658,25.688 0.407,2.351 0.814,4.658 1.221,6.965 0.497,7.959 -0.181,15.24 -1.674,23.064 -0.813,2.668 -1.628,5.336 -2.396,7.959 -2.895,7.553 -6.784,13.703 -11.578,20.17 -1.492,1.629 -2.985,3.257 -4.432,4.885 -10.312,9.723 -22.025,16.099 -35.32,20.713 -9,2.714 -18,4.658 -27.271,6.06 -12.482,1.266 -24.783,1.311 -37.265,0.723 -4.025,-0.361 -8.05,-0.768 -12.03,-1.175 -20.396,-2.894 -39.843,-7.915 -58.973,-15.693 -11.306,-5.201 -22.07,-10.673 -32.336,-17.683 -5.291,-3.935 -5.291,-3.935 -10.401,-8.141 -2.397,-2.261 -4.794,-4.567 -7.191,-6.874 -2.171,-2.533 -4.342,-5.11 -6.467,-7.688 -5.065,-7.507 -8.955,-14.472 -11.668,-23.155 -0.407,-1.854 -0.814,-3.708 -1.221,-5.608 -0.995,-7.417 -0.588,-13.929 1.673,-21.075 0.769,-1.809 1.583,-3.618 2.397,-5.427 2.849,-4.477 5.653,-8.05 9.361,-11.893 6.242,-5.654 12.935,-9.95 20.307,-14.021 0.361,0.407 0.361,0.407 2.532,4.749 1.04,1.809 2.08,3.618 3.166,5.427 6.195,9.316 12.979,17.14 21.029,24.964 10.086,8.548 20.351,15.602 32.065,21.753 3.527,1.629 7.1,3.257 10.672,4.839 13.523,5.111 26.819,8.503 41.019,10.854 13.433,1.403 27.09,2.85 40.567,0.904 3.483,-0.949 6.919,-1.627 8.638,-5.064 1.04,-13.704 -16.281,-14.698 -25.687,-16.191 -6.016,-1.221 -6.016,-1.221 -10.855,-2.442 -6.558,-2.126 -12.075,-4.929 -17.592,-9.091 -1.538,-1.401 -3.075,-2.848 -4.613,-4.296 -13.296,-15.195 -17.321,-35.003 -22.432,-54.088 0.634,-0.045 1.312,-0.091 1.991,-0.136 m -55.491,-48.843 c -6.784,0.904 -12.256,2.352 -18.226,5.653 -1.673,1.357 -3.301,2.714 -4.929,4.025 -10.538,11.849 -10.719,26.276 -7.553,41.109 2.126,6.965 2.126,6.965 2.08,7.281 -15.466,7.463 -29.622,16.553 -38.079,31.93 -0.814,1.944 -1.628,3.844 -2.442,5.743 -1.176,4.523 -1.176,4.523 -1.809,7.824 -1.221,16.191 3.934,29.532 12.573,42.918 1.944,2.533 3.889,5.02 5.879,7.507 11.577,12.392 24.466,22.205 39.39,30.346 0.227,0.634 0.815,6.648 2.035,14.653 1.81,10.402 4.93,20.487 8.412,30.436 3.03,7.236 6.377,14.291 9.95,21.256 4.748,8.095 4.748,8.095 4.794,8.457 -5.111,-3.12 -9.814,-6.286 -14.427,-10.085 -4.794,-4.477 -9.361,-9.317 -14.472,-13.387 -7.643,-4.748 -15.602,-5.607 -24.467,-4.341 -5.653,1.492 -13.296,3.617 -16.914,8.683 h -0.271 c -1.221,1.899 -2.442,3.799 -3.663,5.653 -6.693,12.708 -10.673,26.411 -15.874,39.707 -3.211,6.06 -7.779,13.025 -6.196,20.216 1.493,2.804 2.578,3.482 5.517,4.613 9.633,1.311 18.678,-3.709 27.135,-7.553 3.573,-1.266 7.282,-2.125 10.99,-3.03 28.944,-4.16 58.43,0.679 87.51,-2.261 1.357,0.995 2.759,1.944 4.16,2.894 -10.401,2.261 -20.079,5.111 -29.712,9.633 -5.336,3.121 -5.336,3.121 -8.412,5.11 -5.11,3.98 -9.361,8.141 -13.477,13.116 -1.175,1.854 -2.351,3.708 -3.527,5.517 -5.518,11.487 -7.372,21.663 -7.688,34.371 0.452,9.542 0.949,19.899 3.934,29.08 2.759,5.698 5.563,3.12 8.503,-0.679 15.466,-24.647 28.129,-58.159 57.299,-70.098 3.934,-1.176 3.934,-1.176 6.965,-1.809 7.055,-0.724 13.251,0.045 20.034,1.99 5.925,0.814 12.618,0.361 18.542,-0.453 9.407,0 14.88,3.845 22.07,9.407 9.226,8.774 16.01,19.085 22.929,29.668 6.286,10.854 12.572,21.707 18.904,32.516 1.854,2.895 7.869,13.748 11.532,7.01 2.895,-8.955 1.945,-19.582 1.945,-28.808 C 1.131,94.384 1.131,94.384 0.543,90.45 -2.125,78.33 -6.286,68.244 -13.477,58.069 c -3.482,-4.387 -7.461,-8.367 -11.396,-12.301 -8.457,-6.694 -16.778,-11.85 -26.683,-16.281 -1.899,-0.679 -3.798,-1.357 -5.698,-2.081 2.216,-2.08 4.478,-4.16 6.422,-6.467 0.497,-0.045 0.497,-0.045 13.296,2.397 18.045,2.714 36.406,5.11 54.134,9.633 6.557,2.035 12.256,4.477 18.225,7.824 7.326,5.156 17.638,13.206 27.135,10.402 8.729,-4.342 1.674,-19.266 -0.09,-25.236 C 58.657,10.266 57.21,-6.558 49.657,-20.939 41.336,-31.34 27.858,-36.27 14.653,-33.828 c -3.708,1.085 -6.602,2.351 -9.904,4.342 -8.276,5.969 -16.417,11.17 -26.004,14.833 -3.98,1.131 -8.005,2.623 -12.211,2.759 2.985,-10.628 5.472,-21.165 7.146,-32.109 0.407,-3.257 0.813,-6.513 1.22,-9.814 1.357,-17.638 1.357,-17.638 1.538,-18.407 2.036,-0.814 4.071,-1.628 6.106,-2.442 13.16,-6.151 23.833,-13.477 33.421,-24.421 1.311,-1.764 2.668,-3.573 4.024,-5.382 7.553,-12.301 12.166,-25.055 12.935,-39.617 v -6.331 c -0.679,-10.538 -3.528,-19.583 -8.593,-28.808 -1.267,-1.81 -2.487,-3.618 -3.708,-5.473 -6.92,-8.773 -14.608,-15.376 -23.879,-21.617 -36.496,-22.251 -82.399,-28.582 -124.458,-26.909 -4.478,-13.251 -9.181,-25.552 -20.713,-34.145 -7.01,-4.567 -14.246,-6.422 -22.522,-7.19 -2.759,0 -5.518,-0.045 -8.276,-0.091"
             style="fill:#0a0305;fill-opacity:1;fill-rule:evenodd;stroke:#000000;stroke-width:0.99975;stroke-dasharray:none;stroke-opacity:1"
             id="path22" />
        </g>
        <g
           id="g24"
           transform="translate(396.3994,492.1997)"
           style="stroke:#000000;stroke-width:0.99975;stroke-dasharray:none;stroke-opacity:1">
          <path
             d="m 0,0 c 4.161,0.09 8.051,0.09 11.939,1.764 4.614,2.804 5.97,6.648 4.975,11.803 C 13.975,14.743 7.146,10.809 4.704,9.769 0.859,7.96 -3.617,6.196 -6.964,3.573 -7.326,0.181 -2.216,0.271 0,0 Z m -217.079,-10.854 c 1.855,0.181 3.709,0.362 5.608,0.543 3.121,0.95 6.196,1.854 9.181,3.211 3.347,3.347 -1.492,3.754 -4.07,4.477 -5.563,1.221 -5.563,1.221 -12.527,2.442 -2.036,0.226 -6.196,1.357 -8.005,0 -0.407,-6.512 3.934,-9.588 9.813,-10.673 z m 141.554,-26.818 c 0.452,0.09 0.904,0.181 1.357,0.226 6.376,2.352 3.392,10.764 -3.393,8.683 -1.808,-1.131 -2.441,-2.442 -2.577,-4.523 0.588,-2.713 1.99,-3.617 4.613,-4.386 z m -43.235,-2.126 c 3.166,0.136 4.025,0.226 6.06,2.669 2.397,5.652 -6.06,9.361 -8.864,4.386 -0.814,-3.256 -0.361,-5.788 2.804,-7.055 z m 41.29,-8.592 c 1.448,0.045 2.895,0.09 4.387,0.09 4.794,1.583 6.829,5.02 9.724,9.135 1.085,0.815 2.125,1.357 3.075,0.045 0.679,-1.718 0.679,-1.718 1.854,-6.24 1.583,-3.211 3.392,-2.08 5.969,-0.362 1.538,1.809 1.448,3.165 1.448,5.517 -2.533,10.854 -14.517,27.045 -27.316,20.668 -6.195,-4.929 -13.07,-15.015 -9.497,-23.246 2.442,-3.572 6.286,-4.748 10.356,-5.607 z m -41.742,-1.945 c 6.377,0.181 12.753,0.904 15.421,7.552 1.267,6.784 -3.075,13.071 -6.783,18.317 -2.759,2.397 -4.523,3.934 -8.186,4.522 -11.577,0 -20.803,-12.301 -22.703,-22.793 0.136,-3.483 0.588,-4.297 3.527,-6.332 5.111,-1.854 4.026,6.196 6.603,8.774 1.131,0 1.448,-0.316 2.353,-0.995 3.075,-4.025 4.884,-7.462 9.768,-9.045 z m -66.345,-36.497 c 27.044,13.116 56.034,20.352 85.927,23.156 15.422,0.995 30.12,0.588 45.496,-1.04 4.387,-0.769 8.82,-1.583 13.251,-2.398 4.839,-1.22 4.839,-1.22 12.844,-3.572 -1.538,28.311 -5.155,57.39 -21.934,81.133 -1.493,1.809 -2.94,3.573 -4.386,5.337 -1.719,1.537 -3.438,3.075 -5.112,4.612 -2.171,1.493 -4.341,2.985 -6.511,4.433 -8.729,4.341 -17.005,5.834 -26.774,5.291 -2.487,-0.407 -4.929,-0.814 -7.371,-1.221 -17.728,-4.658 -31.567,-14.472 -44.592,-27.135 -4.387,-4.659 -4.387,-4.659 -8.322,-9.181 -2.034,-2.668 -4.024,-5.336 -6.014,-8.004 -14.517,-21.256 -24.648,-45.542 -26.502,-71.411 z m 94.203,-9.18 c 2.849,0.271 4.162,0.362 5.79,2.939 2.08,6.286 -7.553,9.136 -9.181,3.302 0,-3.482 -0.136,-4.975 3.391,-6.241 z m -33.737,-4.975 c 2.035,0.091 3.437,0 5.02,1.357 2.442,2.894 1.221,7.009 -2.488,7.915 -4.929,0 -5.653,-1.358 -5.653,-6.106 0.543,-1.899 1.312,-2.397 3.121,-3.166 z m 43.867,-3.934 c 8.412,0.226 20.036,1.673 23.563,10.718 1.583,7.552 -5.97,11.351 -11.804,13.523 -10.13,2.441 -26.909,1.763 -31.024,-10.041 0,-8.909 8.005,-11.713 15.467,-13.657 1.266,-0.181 2.533,-0.363 3.798,-0.543 z m -53.093,-2.08 c 7.145,0.543 17.004,2.396 19.085,10.537 0,8.276 -7.327,10.853 -14.246,12.618 -8.367,0.723 -20.306,-0.679 -23.02,-10.221 0,-9.768 10.357,-12.03 18.181,-12.934 z m -33.467,-111.253 c 1.131,0.089 2.307,0.18 3.483,0.225 2.216,0.77 3.844,1.764 5.788,3.03 1.177,1.267 2.397,2.534 3.618,3.754 1.357,2.08 2.714,4.161 4.071,6.242 3.437,6.059 6.467,12.436 10.266,18.315 6.467,6.829 6.467,6.829 9.542,10.402 0.769,1.266 1.448,2.125 1.448,3.573 -3.031,1.493 -7.598,0.588 -10.764,-0.362 -1.447,-0.814 -2.895,-1.628 -4.296,-2.442 -11.488,-9.135 -22.884,-21.482 -27.316,-35.773 -0.136,-4.025 -0.136,-5.699 4.16,-6.964 z m 44.05,-7.553 c 9.632,0.045 19.311,0.226 28.943,0.679 36.361,3.572 76.023,11.712 102.163,39.345 6.603,8.004 10.899,15.783 13.658,25.688 0.407,2.351 0.814,4.658 1.221,6.965 0.497,7.959 -0.181,15.24 -1.674,23.064 -0.813,2.668 -1.628,5.336 -2.396,7.959 -2.895,7.553 -6.784,13.703 -11.578,20.17 -1.492,1.629 -2.985,3.257 -4.432,4.885 -10.312,9.723 -22.025,16.099 -35.32,20.713 -9,2.714 -18,4.658 -27.271,6.06 -12.482,1.266 -24.783,1.311 -37.265,0.723 -4.025,-0.361 -8.05,-0.768 -12.03,-1.175 -20.396,-2.894 -39.843,-7.915 -58.973,-15.693 -11.306,-5.201 -22.07,-10.673 -32.336,-17.683 -5.291,-3.935 -5.291,-3.935 -10.401,-8.141 -2.397,-2.261 -4.794,-4.567 -7.191,-6.874 -2.171,-2.533 -4.342,-5.11 -6.467,-7.688 -5.065,-7.507 -8.955,-14.472 -11.668,-23.155 -0.407,-1.854 -0.814,-3.708 -1.221,-5.608 -0.995,-7.417 -0.588,-13.929 1.673,-21.075 0.769,-1.809 1.583,-3.618 2.397,-5.427 2.849,-4.477 5.653,-8.05 9.361,-11.893 6.242,-5.654 12.935,-9.95 20.307,-14.021 0.361,0.407 0.361,0.407 2.532,4.749 1.04,1.809 2.08,3.618 3.166,5.427 6.195,9.316 12.979,17.14 21.029,24.964 10.086,8.548 20.351,15.602 32.065,21.753 3.527,1.629 7.1,3.257 10.672,4.839 13.523,5.111 26.819,8.503 41.019,10.854 13.433,1.403 27.09,2.85 40.567,0.904 3.483,-0.949 6.919,-1.627 8.638,-5.064 1.04,-13.704 -16.281,-14.698 -25.687,-16.191 -6.016,-1.221 -6.016,-1.221 -10.855,-2.442 -6.558,-2.126 -12.075,-4.929 -17.592,-9.091 -1.538,-1.401 -3.075,-2.848 -4.613,-4.296 -13.296,-15.195 -17.321,-35.003 -22.432,-54.088 0.634,-0.045 1.312,-0.091 1.991,-0.136 z m -55.491,-48.843 c -6.784,0.904 -12.256,2.352 -18.226,5.653 -1.673,1.357 -3.301,2.714 -4.929,4.025 -10.538,11.849 -10.719,26.276 -7.553,41.109 2.126,6.965 2.126,6.965 2.08,7.281 -15.466,7.463 -29.622,16.553 -38.079,31.93 -0.814,1.944 -1.628,3.844 -2.442,5.743 -1.176,4.523 -1.176,4.523 -1.809,7.824 -1.221,16.191 3.934,29.532 12.573,42.918 1.944,2.533 3.889,5.02 5.879,7.507 11.577,12.392 24.466,22.205 39.39,30.346 0.227,0.634 0.815,6.648 2.035,14.653 1.81,10.402 4.93,20.487 8.412,30.436 3.03,7.236 6.377,14.291 9.95,21.256 4.748,8.095 4.748,8.095 4.794,8.457 -5.111,-3.12 -9.814,-6.286 -14.427,-10.085 -4.794,-4.477 -9.361,-9.317 -14.472,-13.387 -7.643,-4.748 -15.602,-5.607 -24.467,-4.341 -5.653,1.492 -13.296,3.617 -16.914,8.683 h -0.271 c -1.221,1.899 -2.442,3.799 -3.663,5.653 -6.693,12.708 -10.673,26.411 -15.874,39.707 -3.211,6.06 -7.779,13.025 -6.196,20.216 1.493,2.804 2.578,3.482 5.517,4.613 9.633,1.311 18.678,-3.709 27.135,-7.553 3.573,-1.266 7.282,-2.125 10.99,-3.03 28.944,-4.16 58.43,0.679 87.51,-2.261 1.357,0.995 2.759,1.944 4.16,2.894 -10.401,2.261 -20.079,5.111 -29.712,9.633 -5.336,3.121 -5.336,3.121 -8.412,5.11 -5.11,3.98 -9.361,8.141 -13.477,13.116 -1.175,1.854 -2.351,3.708 -3.527,5.517 -5.518,11.487 -7.372,21.663 -7.688,34.371 0.452,9.542 0.949,19.899 3.934,29.08 2.759,5.698 5.563,3.12 8.503,-0.679 15.466,-24.647 28.129,-58.159 57.299,-70.098 3.934,-1.176 3.934,-1.176 6.965,-1.809 7.055,-0.724 13.251,0.045 20.034,1.99 5.925,0.814 12.618,0.361 18.542,-0.453 9.407,0 14.88,3.845 22.07,9.407 9.226,8.774 16.01,19.085 22.929,29.668 6.286,10.854 12.572,21.707 18.904,32.516 1.854,2.895 7.869,13.748 11.532,7.01 2.895,-8.955 1.945,-19.582 1.945,-28.808 C 1.131,94.384 1.131,94.384 0.543,90.45 -2.125,78.33 -6.286,68.244 -13.477,58.069 c -3.482,-4.387 -7.461,-8.367 -11.396,-12.301 -8.457,-6.694 -16.778,-11.85 -26.683,-16.281 -1.899,-0.679 -3.798,-1.357 -5.698,-2.081 2.216,-2.08 4.478,-4.16 6.422,-6.467 0.497,-0.045 0.497,-0.045 13.296,2.397 18.045,2.714 36.406,5.11 54.134,9.633 6.557,2.035 12.256,4.477 18.225,7.824 7.326,5.156 17.638,13.206 27.135,10.402 8.729,-4.342 1.674,-19.266 -0.09,-25.236 C 58.657,10.266 57.21,-6.558 49.657,-20.939 41.336,-31.34 27.858,-36.27 14.653,-33.828 c -3.708,1.085 -6.602,2.351 -9.904,4.342 -8.276,5.969 -16.417,11.17 -26.004,14.833 -3.98,1.131 -8.005,2.623 -12.211,2.759 2.985,-10.628 5.472,-21.165 7.146,-32.109 0.407,-3.257 0.813,-6.513 1.22,-9.814 1.357,-17.638 1.357,-17.638 1.538,-18.407 2.036,-0.814 4.071,-1.628 6.106,-2.442 13.16,-6.151 23.833,-13.477 33.421,-24.421 1.311,-1.764 2.668,-3.573 4.024,-5.382 7.553,-12.301 12.166,-25.055 12.935,-39.617 v -6.331 c -0.679,-10.538 -3.528,-19.583 -8.593,-28.808 -1.267,-1.81 -2.487,-3.618 -3.708,-5.473 -6.92,-8.773 -14.608,-15.376 -23.879,-21.617 -36.496,-22.251 -82.399,-28.582 -124.458,-26.909 -4.478,-13.251 -9.181,-25.552 -20.713,-34.145 -7.01,-4.567 -14.246,-6.422 -22.522,-7.19 -2.759,0 -5.518,-0.045 -8.276,-0.091 z"
             style="fill:none;stroke:#000000;stroke-width:0.99975;stroke-linecap:butt;stroke-linejoin:miter;stroke-miterlimit:10;stroke-dasharray:none;stroke-opacity:1"
             id="path26" />
        </g>
      </g>
    </g>
  </g>
</svg>
